<svg width="146" height="145" viewBox="0 0 146 145" fill="none" xmlns="http://www.w3.org/2000/svg">
<path d="M18.7397 37.3043H30.3171V59.1825H18.7397C17.2122 59.1825 15.9258 57.9002 15.9258 56.3776V40.029C15.9258 38.5064 17.2122 37.2241 18.7397 37.2241V37.3043Z" fill="#ED6D26"/>
<path d="M114.656 37.3037H126.234C127.761 37.3037 129.048 38.5859 129.048 40.1086V56.4572C129.048 57.9798 127.761 59.2621 126.234 59.2621H114.656V37.3839V37.3037Z" fill="#ED6D26"/>
<path d="M37.876 108.148H53.3929V125.618C53.3929 128.023 51.3829 130.026 48.971 130.026H42.2979C39.8859 130.026 37.876 128.023 37.876 125.618V108.148Z" fill="#ED6D26"/>
<path d="M91.9033 108.148H107.42V125.618C107.42 128.023 105.41 130.026 102.998 130.026H96.3252C93.9133 130.026 91.9033 128.023 91.9033 125.618V108.148Z" fill="#ED6D26"/>
<path d="M114.655 15.4253H30.2367C25.4412 15.4253 21.5537 19.3003 21.5537 24.0804V109.109C21.5537 113.889 25.4412 117.764 30.2367 117.764H114.655C119.451 117.764 123.338 113.889 123.338 109.109V24.0804C123.338 19.3003 119.451 15.4253 114.655 15.4253Z" fill="#FF802E"/>
<path d="M108.924 31.4541H35.486C33.564 31.4541 32.0059 32.8662 32.0059 34.6082V60.356C32.0059 62.098 33.564 63.5101 35.486 63.5101H108.924C110.846 63.5101 112.404 62.098 112.404 60.356V34.6082C112.404 32.8662 110.846 31.4541 108.924 31.4541Z" fill="white"/>
<path d="M45.6717 98.1303C49.8456 98.1303 53.2292 94.7576 53.2292 90.5971C53.2292 86.4367 49.8456 83.064 45.6717 83.064C41.4978 83.064 38.1143 86.4367 38.1143 90.5971C38.1143 94.7576 41.4978 98.1303 45.6717 98.1303Z" fill="white"/>
<path d="M99.619 98.1303C103.793 98.1303 107.176 94.7576 107.176 90.5971C107.176 86.4367 103.793 83.064 99.619 83.064C95.4451 83.064 92.0615 86.4367 92.0615 90.5971C92.0615 94.7576 95.4451 98.1303 99.619 98.1303Z" fill="white"/>
<path d="M57.5723 78.2556C57.0899 78.2556 56.6075 78.0953 56.2859 77.6946C50.4168 71.8444 40.9298 71.8444 35.0608 77.6946C34.3372 78.4159 33.2116 78.4159 32.488 77.6946C31.7644 76.9734 31.7644 75.8514 32.488 75.1302C39.7239 67.9176 51.5424 67.9176 58.7783 75.1302C59.5019 75.8514 59.5019 76.9734 58.7783 77.6946C58.4567 78.0152 57.9743 78.2556 57.4919 78.2556H57.5723Z" fill="white"/>
<path d="M111.521 78.2556C111.038 78.2556 110.556 78.0953 110.234 77.6946C104.365 71.8444 94.8781 71.8444 89.009 77.6946C88.2854 78.4159 87.1598 78.4159 86.4362 77.6946C85.7127 76.9734 85.7127 75.8514 86.4362 75.1302C93.6721 67.9176 105.491 67.9176 112.727 75.1302C113.45 75.8514 113.45 76.9734 112.727 77.6946C112.405 78.0152 111.923 78.2556 111.44 78.2556H111.521Z" fill="white"/>
<path d="M94.3976 113.197H50.5804C47.7665 113.197 46.2389 109.991 47.9273 107.827L55.4847 97.8901C57.2535 95.5661 60.0674 94.1235 63.0422 94.1235H82.0966C85.0713 94.1235 87.8049 95.4859 89.6541 97.8901L97.2115 107.827C98.8999 110.071 97.2919 113.197 94.5584 113.197H94.3976Z" fill="white"/>
<path d="M45.6713 94.6034C47.8914 94.6034 49.6912 92.8094 49.6912 90.5964C49.6912 88.3833 47.8914 86.5894 45.6713 86.5894C43.4511 86.5894 41.6514 88.3833 41.6514 90.5964C41.6514 92.8094 43.4511 94.6034 45.6713 94.6034Z" fill="black"/>
<path d="M99.6186 94.6034C101.839 94.6034 103.638 92.8094 103.638 90.5964C103.638 88.3833 101.839 86.5894 99.6186 86.5894C97.3984 86.5894 95.5986 88.3833 95.5986 90.5964C95.5986 92.8094 97.3984 94.6034 99.6186 94.6034Z" fill="black"/>
</svg>
