<svg width="30" height="30" viewBox="0 0 30 30" fill="none" xmlns="http://www.w3.org/2000/svg">
<path d="M3.75 6.125C3.75 5.50368 4.25368 5 4.875 5H24.875C25.4963 5 26 5.50368 26 6.125C26 6.74632 25.4963 7.25 24.875 7.25H4.875C4.25368 7.25 3.75 6.74632 3.75 6.125Z" fill="#596070"/>
<path d="M3.75 23.625C3.75 23.0037 4.25368 22.5 4.875 22.5H24.875C25.4963 22.5 26 23.0037 26 23.625C26 24.2463 25.4963 24.75 24.875 24.75H4.875C4.25368 24.75 3.75 24.2463 3.75 23.625Z" fill="#596070"/>
<path d="M4.875 13.75C4.25368 13.75 3.75 14.2537 3.75 14.875C3.75 15.4963 4.25368 16 4.875 16H24.875C25.4963 16 26 15.4963 26 14.875C26 14.2537 25.4963 13.75 24.875 13.75H4.875Z" fill="#596070"/>
</svg>
