<svg width="150" height="24" viewBox="0 0 150 24" fill="none" xmlns="http://www.w3.org/2000/svg">
<path d="M0.588895 4.57854H3.01178V9.15716H0.588895C0.269209 9.15716 0 8.88881 0 8.57015V5.14877C0 4.83011 0.269209 4.56177 0.588895 4.56177V4.57854Z" fill="#ED6D26"/>
<path d="M20.6621 4.57861H23.085C23.4047 4.57861 23.6739 4.84696 23.6739 5.16562V8.587C23.6739 8.90566 23.4047 9.174 23.085 9.174H20.6621V4.59538V4.57861Z" fill="#ED6D26"/>
<path d="M4.59375 19.4045H7.84109V23.0607C7.84109 23.5639 7.42045 23.9832 6.91568 23.9832H5.51916C5.01439 23.9832 4.59375 23.5639 4.59375 23.0607V19.4045Z" fill="#ED6D26"/>
<path d="M15.9004 19.4045H19.1477V23.0607C19.1477 23.5639 18.7271 23.9832 18.2223 23.9832H16.8258C16.321 23.9832 15.9004 23.5639 15.9004 23.0607V19.4045Z" fill="#ED6D26"/>
<path d="M20.6617 0H2.9949C1.99131 0 1.17773 0.810956 1.17773 1.81132V19.6059C1.17773 20.6062 1.99131 21.4172 2.9949 21.4172H20.6617C21.6653 21.4172 22.4789 20.6062 22.4789 19.6059V1.81132C22.4789 0.810956 21.6653 0 20.6617 0Z" fill="#FF802E"/>
<path d="M19.4625 3.35425H4.09355C3.69131 3.35425 3.36523 3.64978 3.36523 4.01433V9.40276C3.36523 9.76731 3.69131 10.0628 4.09355 10.0628H19.4625C19.8647 10.0628 20.1908 9.76731 20.1908 9.40276V4.01433C20.1908 3.64978 19.8647 3.35425 19.4625 3.35425Z" fill="white"/>
<path d="M6.22614 17.3081C7.09963 17.3081 7.80774 16.6022 7.80774 15.7316C7.80774 14.8609 7.09963 14.155 6.22614 14.155C5.35264 14.155 4.64453 14.8609 4.64453 15.7316C4.64453 16.6022 5.35264 17.3081 6.22614 17.3081Z" fill="white"/>
<path d="M17.5152 17.3081C18.3887 17.3081 19.0968 16.6022 19.0968 15.7316C19.0968 14.8609 18.3887 14.155 17.5152 14.155C16.6417 14.155 15.9336 14.8609 15.9336 15.7316C15.9336 16.6022 16.6417 17.3081 17.5152 17.3081Z" fill="white"/>
<path d="M8.71472 13.149C8.61376 13.149 8.51281 13.1154 8.44551 13.0316C7.21724 11.8072 5.23182 11.8072 4.00355 13.0316C3.85212 13.1825 3.61657 13.1825 3.46514 13.0316C3.3137 12.8806 3.3137 12.6458 3.46514 12.4949C4.97944 10.9854 7.4528 10.9854 8.9671 12.4949C9.11853 12.6458 9.11853 12.8806 8.9671 13.0316C8.8998 13.0986 8.79884 13.149 8.69789 13.149H8.71472Z" fill="white"/>
<path d="M20.0057 13.149C19.9048 13.149 19.8038 13.1154 19.7365 13.0316C18.5083 11.8072 16.5228 11.8072 15.2946 13.0316C15.1431 13.1825 14.9076 13.1825 14.7562 13.0316C14.6047 12.8806 14.6047 12.6458 14.7562 12.4949C16.2705 10.9854 18.7438 10.9854 20.2581 12.4949C20.4095 12.6458 20.4095 12.8806 20.2581 13.0316C20.1908 13.0986 20.0899 13.149 19.9889 13.149H20.0057Z" fill="white"/>
<path d="M16.4215 20.4611H7.25153C6.66264 20.4611 6.34295 19.7902 6.69629 19.3374L8.27789 17.2577C8.64806 16.7714 9.23695 16.4695 9.8595 16.4695H13.8472C14.4697 16.4695 15.0418 16.7546 15.4288 17.2577L17.0104 19.3374C17.3637 19.807 17.0272 20.4611 16.4551 20.4611H16.4215Z" fill="white"/>
<path d="M6.22604 16.5702C6.69067 16.5702 7.06732 16.1948 7.06732 15.7316C7.06732 15.2685 6.69067 14.8931 6.22604 14.8931C5.76142 14.8931 5.38477 15.2685 5.38477 15.7316C5.38477 16.1948 5.76142 16.5702 6.22604 16.5702Z" fill="black"/>
<path d="M17.5151 16.5702C17.9797 16.5702 18.3564 16.1948 18.3564 15.7316C18.3564 15.2685 17.9797 14.8931 17.5151 14.8931C17.0505 14.8931 16.6738 15.2685 16.6738 15.7316C16.6738 16.1948 17.0505 16.5702 17.5151 16.5702Z" fill="black"/>
<path d="M91.2563 18.717C92.4846 17.0734 94.3859 14.7086 95.6983 13.2495C96.0011 12.9476 96.5227 13.2998 96.7583 13.434C97.1116 13.652 97.2799 13.7526 98.2221 14.3396C98.4072 14.457 98.5081 14.608 98.5081 14.826C98.5081 14.9099 98.5081 14.977 98.4577 15.0608C98.323 15.3795 97.5154 16.2348 97.3808 16.5535C98.3904 17.174 99.0129 17.6101 99.8037 18.3816C100.208 18.7673 100.275 18.9686 100.561 19.2537C100.578 19.2705 100.595 19.304 100.595 19.3375C100.595 19.4046 100.409 19.7401 100.409 19.7736C100.342 19.9078 100.275 20.0252 100.191 20.1258C99.8374 20.5451 99.4504 20.7967 99.1138 21.216C99.0129 21.3501 98.8951 21.434 98.811 21.434C98.5923 21.434 98.2726 21.283 97.8519 20.9979C97.2799 20.5619 96.7078 20.1258 96.1357 19.6897C95.2608 20.8805 94.6551 21.6856 94.3017 22.1384C94.0157 22.4738 93.7128 22.6583 93.3595 22.6583C93.1408 22.6583 92.8884 22.5744 92.6024 22.4067C92.249 22.1719 91.7442 21.87 91.1217 21.5178C91.1217 21.5514 91.1049 21.5682 91.1049 21.5849C90.8525 22.1384 90.4823 22.4235 90.0112 22.4235C89.8093 22.4235 89.6074 22.3564 89.4223 22.239C89.1026 22.0378 88.0594 21.2327 87.7398 21.0315C87.2013 20.6793 86.5788 20.3103 85.9226 19.9413C85.8216 19.891 85.6702 19.8407 85.4515 19.7736C84.9635 20.3606 84.3073 21.3501 83.7353 22.0545C83.567 22.2893 82.9781 22.8092 82.5238 22.8092C82.2883 22.8092 82.0864 22.7254 81.8845 22.5577C81.4302 22.3396 80.5384 22.0042 80.2356 21.7191C80.0841 21.5346 80 21.3166 80 21.0818C80 20.7463 80.1851 20.4277 80.3702 20.1761C81.5143 18.5157 82.608 16.9224 83.4997 15.6814C83.8867 15.1279 84.2737 14.6415 84.6943 14.1719C84.7953 14.0713 84.8289 13.9204 84.9635 13.8533C84.9804 13.8533 85.0981 13.7526 85.1318 13.7526C85.1655 13.7526 85.2664 13.7023 85.3169 13.7023H85.4347C85.7712 13.7023 86.0236 13.9874 86.2591 14.1048C86.7639 14.4067 87.0836 14.6248 87.2182 14.7589C87.4706 15.0273 87.5883 15.3124 87.5883 15.6143C87.5883 16.0503 87.3864 16.3187 87.235 16.7044C88.1436 17.1237 90.1458 18.1971 91.2227 18.717H91.2563ZM94.3522 11.3711C94.4868 12.3774 94.5205 12.7967 93.696 12.7967C92.5014 12.9308 89.8598 12.9644 85.7375 12.8973C85.3001 12.8973 83.8531 12.8973 81.3797 12.9644C80.4038 12.9979 79.9327 12.3103 80.1178 11.2872L80.1683 10.9183C80.1683 10.6499 80.2187 10.6667 80.4543 10.5493C80.5216 10.499 80.5721 10.4654 80.6225 10.4487L85.115 9.91197C85.2327 9.59331 85.3505 9.29142 85.5188 8.97276C84.4419 8.78828 83.3146 8.46962 82.1537 8.03356C80.8581 7.54719 80.1851 6.80924 80.1178 5.81972C80.0168 4.49477 80.4543 3.52203 81.4302 2.90148C82.4734 2.21385 82.8772 1.91197 84.1054 1.54299C85.0813 1.25788 85.5693 1.35851 86.7471 1.35851C88.295 1.35851 89.2877 1.57654 90.4823 1.89519C91.4919 2.16354 92.35 2.61637 92.9557 3.32077C93.9652 4.478 93.9316 5.08178 93.0062 6.4235C92.2827 7.41301 91.5928 8.13419 90.903 8.55348C90.2131 8.97276 89.3718 9.19079 88.3455 9.20756C88.5137 9.72748 88.7156 9.79457 89.6411 9.8952C90.2973 9.96228 91.0039 10.0126 91.7443 10.0294C92.4846 10.0461 92.922 10.0797 93.0566 10.1132C93.3932 10.2306 93.5614 10.2809 93.5951 10.2809C94.2008 10.5157 94.369 10.6164 94.369 11.3711H94.3522ZM87.5379 7.06081H87.7734C88.6988 7.02727 88.9512 6.62475 89.2036 5.80295C89.3718 5.19918 89.1026 4.79666 88.3791 4.61218C87.4369 4.3606 86.3601 4.15935 85.1318 4.0084C84.341 3.90777 83.7858 4.56186 83.6848 5.24949C83.5838 5.95389 83.9204 6.38995 84.6775 6.57444C85.1823 6.72538 86.2928 6.92664 86.848 7.0105C87.1677 7.06081 87.3191 7.07758 87.3191 7.06081H87.5547H87.5379ZM99.2653 5.78618C99.3158 5.97067 100.022 6.28932 100.477 6.37318C101.167 6.50735 101.655 6.60798 101.453 7.44656C101.251 8.25159 100.763 8.75473 99.972 8.93922C99.7701 8.98953 99.4335 8.97276 99.3326 8.87213C99.198 8.73796 99.198 9.00631 99.2653 9.17402C99.5177 10.8679 99.5177 11.9245 99.2653 12.3271C99.0634 12.6625 98.8951 12.8805 98.7437 12.9644C98.0202 13.3501 97.3303 13.4004 96.6573 13.0985C96.3208 12.9476 96.2535 12.4277 96.3545 11.9749C96.3713 11.6227 96.0684 9.05662 96.0684 8.73796C96.1021 5.56815 96.1694 3.37109 96.2872 2.18031C96.3713 1.32496 97.1453 1.44236 97.9697 1.35851C98.6764 1.25788 98.8446 1.25788 98.9288 1.74425C98.9624 1.94551 98.9961 2.06291 99.0297 2.11322C99.1307 2.5996 99.1812 4.56186 99.097 5.09855C99.097 5.18241 99.2653 5.73587 99.2653 5.80295V5.78618Z" fill="#FF802E"/>
<path d="M111.339 20.2867C111.392 19.1678 111.446 17.9615 110.449 17.8217C110.164 17.7692 108.953 17.7168 106.816 17.6469C104.679 17.5769 103.379 17.542 102.934 17.542C102.649 17.542 102.435 17.3671 102.257 17C101.937 16.3182 101.919 15.479 102.186 14.5C102.222 14.3252 102.435 14.1853 102.863 14.1154C102.952 14.0629 103.059 14.0979 105.837 14.0979C106.139 14.0804 114.526 13.8706 114.865 13.8531C115.043 13.8531 122.575 13.7832 122.789 13.7832C123.145 13.7832 123.448 14.0105 123.662 14.4825C124.018 15.1993 124.089 15.8986 123.893 16.5979C123.822 16.8427 123.626 17.035 123.305 17.1573C122.949 17.2972 121.649 17.4021 119.441 17.4545C117.233 17.507 116.076 17.542 115.969 17.5594L115.541 17.6294C115.506 17.7867 115.185 21.0559 115.15 21.2308C115.079 21.5804 114.865 21.7902 114.509 21.8601C114.153 21.9301 113.298 21.965 111.962 22C111.197 22 111.339 20.951 111.375 20.2517L111.339 20.2867ZM115.702 3.1014C115.702 4.11538 115.826 5.00699 116.129 5.77622C116.254 6.16084 116.521 6.40559 116.93 6.51049C118.088 6.77273 119.53 7.13986 121.275 7.62937C121.774 7.76923 122.166 7.92657 121.863 8.55594C121.756 8.78322 121.578 9.74475 121.489 9.98951C121.08 11.3706 119.726 11.4056 118.124 11.6853C117.625 11.7727 117.233 11.8252 116.966 11.8252C116.592 11.8252 116.2 11.6853 115.809 11.4056C115.346 11.0734 114.918 10.6538 114.544 10.1643C113.992 9.48252 113.28 8.97552 112.443 8.66084C112.105 8.52098 111.731 8.53846 111.286 8.71329C110.449 9.04545 109.416 9.5 108.205 10.0944C107.849 10.2168 107.404 10.479 107.19 10.549C106.656 10.7762 105.267 11.0734 104.715 10.6713C104.59 10.5664 104.483 10.3741 104.448 10.0594C104.394 9.76224 104.323 9.48252 104.216 9.2028C103.824 8.11888 104.216 7.31468 105.356 6.82517C108.223 5.54895 109.719 4.88462 109.843 4.83217C110.431 4.58741 110.627 4.22028 110.662 3.48601C110.662 3.43357 110.627 3.01399 110.538 2.22727C112.55 2.1049 113.672 2.01748 113.903 2C114.509 2 115.72 2.2972 115.72 3.1014H115.702Z" fill="#FF802E"/>
<path d="M138.956 16.8958C138.903 17.7698 138.832 18.3291 138.726 18.5564C138.619 18.7836 138.265 19.2556 137.644 19.9373C137.502 20.0772 137.307 20.1646 137.094 20.1821C136.545 20.217 133.902 20.3743 133.371 20.4443C131.739 20.654 129.913 20.4967 127.891 19.9548C127.076 19.7276 126.632 19.3255 126.437 18.469C126.083 17.0531 125.959 14.8855 126.012 13.1725C126.03 12.3858 126.03 11.4944 126.012 10.5504C125.959 8.97719 126.118 7.38649 126.473 5.7783C126.473 5.70838 126.579 5.07909 126.739 3.85547C130.019 3.97783 131.792 4.04775 132.094 4.04775C132.626 4.08271 134.789 4.24004 135.357 4.275C135.995 4.275 136.828 4.25752 137.821 4.15264C139.453 3.99531 140.002 5.56854 139.488 7.05436C139.399 7.31657 139.346 7.52633 139.328 7.64869C139.275 8.1731 138.974 8.43531 138.406 8.45279C137.13 8.48775 136.137 8.48775 135.427 8.47026C135.073 8.47026 133.832 8.41782 131.721 8.29546L131.278 8.24302C130.764 8.13814 130.445 8.29546 130.285 8.69751C130.126 9.09956 130.037 9.36176 130.037 9.44916C130.037 12.1062 130.09 14.0465 130.143 15.2351C130.143 15.3575 130.409 15.5847 130.533 15.5847C130.888 15.6372 132.271 15.6896 132.626 15.7246C135.392 15.9343 137.343 16.0917 138.495 16.214C138.672 16.214 138.938 16.686 138.938 16.8783L138.956 16.8958ZM146.208 19.9024C146.208 20.5491 146.031 20.9861 145.641 21.2134C144.648 21.7553 143.939 22 143.495 22C141.864 22 141.474 21.5106 141.368 19.9548C141.244 17.6824 141.19 16.1266 141.19 15.2876C141.19 14.0814 141.279 10.3232 141.439 3.99531C141.51 3.19122 141.74 2.49201 141.9 1.81028C142.006 1.37327 142.237 1.42571 142.733 1.28587C143.283 1.12855 143.229 1.14603 143.779 1.04115C144.4 0.936264 144.949 1.04115 145.411 1.25091C145.889 1.47815 146.155 1.91516 146.208 2.56193C146.208 2.84161 146.244 3.82051 146.262 5.49862C146.262 7.17672 146.315 8.22554 146.368 8.64507C146.457 9.152 146.989 9.69388 147.361 10.0785C147.645 10.3756 148.159 10.9 148.46 11.1447C148.815 11.4944 149.046 11.8964 148.992 12.5607C148.939 13.2948 148.904 13.2773 148.709 13.9766C148.567 14.5534 148.035 14.868 147.148 14.868C146.173 14.868 146.102 15.0429 146.138 16.0567C146.138 16.5462 146.208 19.378 146.208 19.8849V19.9024Z" fill="#FF802E"/>
<path d="M29.175 5.80288C29.2423 4.56179 29.2592 3.23685 30.235 3.01882C30.8071 2.88464 31.4465 2.9685 32.1532 3.01882C32.5738 3.05236 33.0449 3.03559 33.5665 3.01882C33.4656 3.40456 33.4151 4.79659 33.3982 7.19492C33.3982 9.57647 33.2805 11.1698 33.0786 11.9748C32.8598 13.6184 35.3837 13.0649 36.6961 12.914C37.1335 12.8637 37.4364 12.8469 37.6215 12.8637C37.1335 9.5597 36.9316 6.25571 37.0326 2.95173C37.4196 3.0859 40.852 3.63936 41.3231 3.68968C42.0634 3.79031 42.7701 4.36054 42.7364 5.16557C42.6355 7.93286 42.6018 12.1593 42.3326 14.6582C42.2148 15.6142 42.2317 15.4297 42.0802 16.3857C41.9288 17.3249 41.8783 17.3752 41.626 18.2138C41.3904 19.0188 41.2053 19.2033 40.8015 19.8238C40.4313 20.3773 40.0443 20.5786 39.4218 20.8469C39.1358 20.9643 38.8161 21.0314 38.4796 21.0314C35.8884 21.0314 32.944 21.9371 30.622 21.0649C29.9154 20.8301 29.6966 20.0922 29.6966 19.153C29.5452 15.1781 29.2592 9.84481 29.1582 5.83643L29.175 5.80288ZM35.064 15.5136C34.4919 15.4465 33.8189 15.5639 33.7684 16.067C33.7684 16.1677 33.7684 16.3186 33.7684 16.5366C33.7684 17.1572 33.8525 17.4591 33.9703 18.1132C35.0135 18.4989 35.7538 18.6498 36.1745 18.5492C36.5951 18.4486 36.8138 18.1299 36.8138 17.61C36.8138 17.0901 36.7634 16.4025 36.6792 15.5639C36.2418 15.5639 35.4341 15.5639 35.064 15.5136ZM52.3607 1.92867C52.4616 1.97898 52.5289 2.0293 52.5457 2.07961C52.6804 2.54921 52.7308 3.10267 52.6972 3.73999C52.5626 5.23265 52.041 11.2033 51.8559 13.4507C51.5867 16.3186 51.5699 16.1341 51.4857 17.979C51.4353 18.9685 51.3848 19.7903 51.267 20.6624C51.2165 20.9979 50.981 21.5178 50.5435 22.2222C50.4426 22.3899 50.207 22.4737 49.8537 22.4737C49.7864 22.4905 49.0292 22.5073 47.599 22.5073C47.0943 22.5073 46.7578 22.1886 46.7241 21.719L46.539 19.0356C46.539 18.9014 46.4381 17.979 46.4549 17.8113C46.5054 17.0566 46.6063 16.3186 46.7578 15.5974C46.926 14.6247 46.7073 14.3396 45.7314 14.5576C44.3349 14.8259 43.1907 13.719 43.4263 12.3438C43.6618 11.0188 44.5536 10.1802 45.9838 10.0796C46.64 10.0461 47.2793 9.54292 47.313 8.90561C47.3803 7.99995 47.6159 4.88045 47.6663 3.95802C47.7 3.68968 47.7841 3.23685 47.9187 2.63307C48.0533 2.07961 48.4067 1.7945 48.9956 1.81127C49.6854 1.82804 50.3079 1.84481 50.88 1.84481C50.8968 1.84481 51.1324 1.77773 51.5699 1.64355C51.5699 1.74418 52.2261 1.89513 52.3102 1.94544L52.3607 1.92867Z" fill="#FF802E"/>
<path d="M56.5666 21.7694C55.9777 21.8198 55.7758 21.8365 55.4225 21.6353C55.271 21.5514 55.2037 21.4676 55.1869 21.3837C55.0523 20.5787 54.9345 19.6059 54.8504 18.4487C54.8167 18.2977 55.1028 18.0629 55.2037 18.0462C57.7276 17.5263 62.9771 17.2579 65.6861 16.9225C66.5105 16.8386 68.1426 16.7715 70.5991 16.7212C73.0557 16.6709 74.3849 16.6374 74.57 16.6374C75.2598 16.5703 76.0506 16.5032 76.7909 16.5367C77.6154 16.6038 77.9183 17.0399 77.7163 17.8617C77.4471 18.8344 77.1275 19.8575 76.7741 20.9141C76.6059 21.4676 75.5963 21.652 74.9233 21.7024C74.0147 21.803 67.0489 22.1552 66.1235 22.239C65.3327 22.1384 57.1891 21.7191 56.5498 21.7694H56.5666ZM67.1835 2.93506C67.8734 2.93506 69.0512 3.30403 69.0512 4.20969C69.0344 5.3837 69.1858 6.42353 69.4886 7.34596C69.6232 7.78202 69.8925 8.06713 70.3131 8.16776C71.5077 8.48642 73.0052 8.93925 74.7887 9.49271C75.3271 9.66043 75.6973 9.84491 75.4112 10.5661C75.3103 10.8177 75.1084 11.9581 75.0243 12.2265C74.6204 13.803 73.2912 13.8868 71.5582 14.2055C71.0366 14.3061 70.6496 14.3564 70.3636 14.3732C69.9766 14.3732 69.5728 14.2055 69.169 13.8701C68.6978 13.4843 68.2604 13.0147 67.8566 12.4613C67.2845 11.6395 66.561 11.0525 65.6861 10.6835C65.3496 10.5158 64.9457 10.5325 64.4915 10.7338C63.6165 11.1195 62.5565 11.6562 61.3114 12.3439C60.9917 12.5619 60.4701 12.7967 60.2682 12.8973C59.8812 13.0818 59.0736 13.3166 58.4847 13.2495C57.7107 13.216 57.5425 13.0483 57.4415 12.3271C57.3911 11.9917 57.3069 11.6562 57.206 11.3376C56.8022 10.0797 57.1892 9.14051 58.3838 8.53674C61.3451 7.06084 62.893 6.28936 63.0108 6.23904C63.6333 5.95393 63.8184 5.5011 63.8521 4.66252C63.8521 4.61221 63.8016 4.12583 63.7175 3.2034C65.8038 3.05246 66.9648 2.9686 67.2004 2.95183L67.1835 2.93506Z" fill="#FF802E"/>
</svg>
