<svg width="286" height="253" viewBox="0 0 286 253" fill="none" xmlns="http://www.w3.org/2000/svg">
<path d="M88.7397 37.3043H100.317V59.1825H88.7397C87.2122 59.1825 85.9258 57.9002 85.9258 56.3776V40.029C85.9258 38.5064 87.2122 37.2241 88.7397 37.2241V37.3043Z" fill="#ED6D26"/>
<path d="M184.656 37.3037H196.234C197.761 37.3037 199.048 38.5859 199.048 40.1086V56.4572C199.048 57.9798 197.761 59.2621 196.234 59.2621H184.656V37.3839V37.3037Z" fill="#ED6D26"/>
<path d="M107.876 108.148H123.393V125.618C123.393 128.023 121.383 130.026 118.971 130.026H112.298C109.886 130.026 107.876 128.023 107.876 125.618V108.148Z" fill="#ED6D26"/>
<path d="M161.903 108.148H177.42V125.618C177.42 128.023 175.41 130.026 172.998 130.026H166.325C163.913 130.026 161.903 128.023 161.903 125.618V108.148Z" fill="#ED6D26"/>
<path d="M184.655 15.4253H100.237C95.4412 15.4253 91.5537 19.3003 91.5537 24.0804V109.109C91.5537 113.889 95.4412 117.764 100.237 117.764H184.655C189.451 117.764 193.338 113.889 193.338 109.109V24.0804C193.338 19.3003 189.451 15.4253 184.655 15.4253Z" fill="#FF802E"/>
<path d="M178.924 31.4541H105.486C103.564 31.4541 102.006 32.8662 102.006 34.6082V60.356C102.006 62.098 103.564 63.5101 105.486 63.5101H178.924C180.846 63.5101 182.404 62.098 182.404 60.356V34.6082C182.404 32.8662 180.846 31.4541 178.924 31.4541Z" fill="white"/>
<path d="M115.672 98.1303C119.846 98.1303 123.229 94.7576 123.229 90.5971C123.229 86.4367 119.846 83.064 115.672 83.064C111.498 83.064 108.114 86.4367 108.114 90.5971C108.114 94.7576 111.498 98.1303 115.672 98.1303Z" fill="white"/>
<path d="M169.619 98.1303C173.793 98.1303 177.176 94.7576 177.176 90.5971C177.176 86.4367 173.793 83.064 169.619 83.064C165.445 83.064 162.062 86.4367 162.062 90.5971C162.062 94.7576 165.445 98.1303 169.619 98.1303Z" fill="white"/>
<path d="M127.572 78.2556C127.09 78.2556 126.608 78.0953 126.286 77.6946C120.417 71.8444 110.93 71.8444 105.061 77.6946C104.337 78.4159 103.212 78.4159 102.488 77.6946C101.764 76.9734 101.764 75.8514 102.488 75.1302C109.724 67.9176 121.542 67.9176 128.778 75.1302C129.502 75.8514 129.502 76.9734 128.778 77.6946C128.457 78.0152 127.974 78.2556 127.492 78.2556H127.572Z" fill="white"/>
<path d="M181.521 78.2556C181.038 78.2556 180.556 78.0953 180.234 77.6946C174.365 71.8444 164.878 71.8444 159.009 77.6946C158.285 78.4159 157.16 78.4159 156.436 77.6946C155.713 76.9734 155.713 75.8514 156.436 75.1302C163.672 67.9176 175.491 67.9176 182.727 75.1302C183.45 75.8514 183.45 76.9734 182.727 77.6946C182.405 78.0152 181.923 78.2556 181.44 78.2556H181.521Z" fill="white"/>
<path d="M164.398 113.197H120.58C117.766 113.197 116.239 109.991 117.927 107.827L125.485 97.8901C127.253 95.5661 130.067 94.1235 133.042 94.1235H152.097C155.071 94.1235 157.805 95.4859 159.654 97.8901L167.212 107.827C168.9 110.071 167.292 113.197 164.558 113.197H164.398Z" fill="white"/>
<path d="M115.671 94.6034C117.891 94.6034 119.691 92.8094 119.691 90.5964C119.691 88.3833 117.891 86.5894 115.671 86.5894C113.451 86.5894 111.651 88.3833 111.651 90.5964C111.651 92.8094 113.451 94.6034 115.671 94.6034Z" fill="black"/>
<path d="M169.619 94.6034C171.839 94.6034 173.638 92.8094 173.638 90.5964C173.638 88.3833 171.839 86.5894 169.619 86.5894C167.398 86.5894 165.599 88.3833 165.599 90.5964C165.599 92.8094 167.398 94.6034 169.619 94.6034Z" fill="black"/>
<g clip-path="url(#clip0_130_12878)">
<path d="M0 157.035C0.133541 154.216 0.178055 151.174 2.40374 150.682C3.69463 150.369 5.16358 150.548 6.76607 150.682C7.70086 150.727 8.76918 150.727 9.97105 150.682C9.74848 151.577 9.61494 154.753 9.61494 160.211C9.61494 165.67 9.34786 169.338 8.90272 171.128C8.36856 174.886 14.1108 173.633 17.0932 173.275C18.0725 173.141 18.7847 173.141 19.2299 173.141C18.117 165.58 17.6719 158.019 17.8945 150.458C18.7847 150.771 26.5746 152.024 27.643 152.158C29.3345 152.382 30.937 153.679 30.8479 155.559C30.6254 161.867 30.5363 171.575 29.9132 177.257C29.6461 179.449 29.6906 179.047 29.3345 181.239C29.0229 183.386 28.8448 183.476 28.3107 185.444C27.7765 187.278 27.3314 187.681 26.4411 189.113C25.5953 190.41 24.7496 190.858 23.3251 191.439C22.6574 191.708 21.9452 191.842 21.1885 191.842C15.3127 191.842 8.63564 193.9 3.38304 191.887C1.78054 191.35 1.29089 189.65 1.29089 187.502C0.9793 178.42 0.311595 166.206 0.0890272 157.08L0 157.035ZM13.3541 179.225C12.0632 179.091 10.5497 179.36 10.4162 180.478C10.4162 180.702 10.4162 181.06 10.4162 181.552C10.4162 182.984 10.5942 183.655 10.8613 185.176C13.2205 186.071 14.8675 186.384 15.8468 186.16C16.8261 185.936 17.3158 185.22 17.3158 184.013C17.3158 182.805 17.2268 181.239 17.0042 179.36C16.0249 179.36 14.1553 179.36 13.3541 179.225ZM52.5706 148.177C52.7932 148.311 52.9267 148.4 52.9712 148.534C53.2828 149.608 53.4163 150.906 53.3273 152.337C53.0157 155.737 51.8139 169.428 51.4132 174.528C50.79 181.06 50.79 180.657 50.5675 184.863C50.4784 187.144 50.3449 189.023 50.0778 190.992C49.9443 191.752 49.4101 192.96 48.4308 194.526C48.2083 194.929 47.6741 195.108 46.8728 195.108C46.6948 195.108 45.0033 195.153 41.7538 195.153C40.5964 195.153 39.8397 194.437 39.7952 193.363L39.3946 187.234C39.3946 186.921 39.172 184.818 39.2165 184.415C39.35 182.715 39.5726 181.015 39.9287 179.36C40.2848 177.167 39.8397 176.496 37.614 176.989C34.4535 177.615 31.8718 175.065 32.4059 171.933C32.9401 168.891 34.9432 166.967 38.1927 166.743C39.6616 166.654 41.1306 165.491 41.2196 164.059C41.3532 162.001 41.9318 154.843 42.0209 152.74C42.1099 152.114 42.2879 151.129 42.5995 149.698C42.9111 148.4 43.7124 147.774 45.0478 147.819C46.6058 147.819 48.0302 147.863 49.3211 147.863C49.3211 147.863 49.8998 147.729 50.8791 147.416C50.8791 147.64 52.348 147.998 52.5706 148.132V148.177Z" fill="#FF802E"/>
<path d="M62.0966 193.542C60.7612 193.631 60.3161 193.676 59.5148 193.229C59.2032 193.05 58.9807 192.826 58.9807 192.647C58.6691 190.813 58.402 188.576 58.2239 185.936C58.1349 185.578 58.8026 185.086 59.0252 184.997C64.7674 183.789 76.6526 183.207 82.7955 182.447C84.665 182.268 88.3597 182.089 93.9239 181.999C99.4881 181.865 102.47 181.82 102.916 181.82C104.518 181.641 106.254 181.507 107.946 181.597C109.815 181.731 110.483 182.76 110.038 184.639C109.415 186.876 108.702 189.202 107.901 191.618C107.501 192.871 105.23 193.318 103.717 193.408C101.669 193.631 85.8669 194.437 83.7748 194.616C81.9942 194.392 63.5211 193.408 62.0966 193.542ZM86.1785 150.503C87.7365 150.503 90.4073 151.353 90.4073 153.411C90.4073 156.095 90.7189 158.466 91.3866 160.569C91.6982 161.598 92.3214 162.18 93.2562 162.448C95.9715 163.209 99.3545 164.193 103.405 165.491C104.607 165.893 105.497 166.296 104.785 167.951C104.563 168.533 104.117 171.128 103.895 171.754C102.96 175.333 99.9777 175.557 96.016 176.273C94.8586 176.496 93.9239 176.631 93.3007 176.631C92.4104 176.631 91.5201 176.228 90.5853 175.467C89.517 174.573 88.5377 173.499 87.6029 172.246C86.312 170.367 84.665 169.025 82.6619 168.175C81.9052 167.772 80.9704 167.817 79.9466 168.309C77.988 169.204 75.5843 170.412 72.7354 171.978C71.9786 172.47 70.8213 173.007 70.3762 173.275C69.4859 173.722 67.7053 174.259 66.3254 174.08C64.5894 173.991 64.1888 173.588 63.9662 171.978C63.8327 171.217 63.6546 170.457 63.432 169.696C62.4972 166.833 63.432 164.685 66.1029 163.298C72.8244 159.898 76.341 158.153 76.6081 158.064C78.0325 157.393 78.4331 156.364 78.5221 154.44C78.5221 154.306 78.4331 153.232 78.2106 151.129C82.929 150.771 85.5553 150.592 86.0895 150.548L86.1785 150.503Z" fill="#FF802E"/>
<path d="M143.022 188.8C146.093 184.684 150.767 178.778 154.061 175.154C154.818 174.394 156.109 175.244 156.688 175.602C157.578 176.138 157.979 176.407 160.293 177.883C160.738 178.152 161.006 178.554 161.006 179.091C161.006 179.27 161.006 179.494 160.872 179.673C160.56 180.478 158.513 182.626 158.201 183.386C160.694 184.952 162.252 186.026 164.211 187.95C165.19 188.889 165.368 189.426 166.08 190.142C166.125 190.187 166.169 190.276 166.169 190.365C166.169 190.544 165.724 191.394 165.724 191.484C165.59 191.842 165.412 192.11 165.19 192.379C164.3 193.408 163.365 194.034 162.519 195.108C162.252 195.466 161.985 195.645 161.762 195.645C161.228 195.645 160.427 195.287 159.403 194.526C157.979 193.452 156.554 192.334 155.174 191.26C152.993 194.213 151.48 196.271 150.634 197.389C149.922 198.24 149.165 198.687 148.319 198.687C147.785 198.687 147.162 198.463 146.45 198.061C145.559 197.479 144.357 196.718 142.799 195.824C142.799 195.913 142.755 195.958 142.755 196.003C142.132 197.389 141.241 198.105 140.04 198.105C139.55 198.105 139.06 197.971 138.571 197.658C137.769 197.121 135.188 195.153 134.431 194.616C133.095 193.721 131.582 192.826 129.891 191.887C129.668 191.752 129.267 191.618 128.733 191.484C127.531 192.96 125.884 195.421 124.504 197.211C124.059 197.792 122.635 199.09 121.477 199.09C120.899 199.09 120.365 198.866 119.919 198.463C118.807 197.882 116.581 197.076 115.869 196.36C115.468 195.913 115.29 195.376 115.29 194.795C115.29 193.945 115.735 193.184 116.225 192.513C119.074 188.397 121.745 184.37 123.97 181.283C124.949 179.897 125.884 178.689 126.908 177.525C127.131 177.257 127.264 176.899 127.576 176.72C127.576 176.72 127.932 176.452 127.976 176.452C128.065 176.452 128.333 176.317 128.422 176.317H128.733C129.579 176.317 130.202 177.033 130.781 177.302C132.027 178.062 132.828 178.599 133.14 178.912C133.763 179.583 134.075 180.299 134.075 181.06C134.075 182.178 133.541 182.805 133.185 183.789C135.41 184.818 140.396 187.547 143.067 188.8H143.022ZM150.678 170.457C150.99 172.962 151.079 173.991 149.031 173.991C146.093 174.349 139.505 174.438 129.312 174.215C128.244 174.215 124.638 174.215 118.54 174.394C116.136 174.483 114.934 172.738 115.424 170.188L115.557 169.249C115.557 168.578 115.691 168.622 116.269 168.309C116.403 168.175 116.581 168.13 116.67 168.085L127.798 166.743C128.065 165.983 128.377 165.177 128.778 164.417C126.107 163.969 123.347 163.164 120.409 162.09C117.204 160.882 115.513 159.048 115.379 156.543C115.157 153.232 116.225 150.816 118.629 149.25C121.21 147.55 122.19 146.745 125.261 145.85C127.709 145.134 128.867 145.403 131.805 145.403C135.633 145.403 138.081 145.94 141.063 146.745C143.556 147.416 145.693 148.579 147.206 150.279C149.699 153.187 149.61 154.664 147.34 158.019C145.559 160.525 143.823 162.269 142.132 163.343C140.44 164.372 138.304 164.954 135.811 164.998C136.256 166.296 136.701 166.475 139.016 166.699C140.663 166.877 142.399 166.967 144.224 167.056C146.049 167.101 147.117 167.191 147.473 167.28C148.275 167.549 148.72 167.683 148.809 167.683C150.322 168.264 150.723 168.533 150.723 170.412L150.678 170.457ZM133.808 159.63H134.386C136.701 159.54 137.324 158.511 137.903 156.498C138.348 154.977 137.636 153.993 135.855 153.545C133.541 152.919 130.87 152.427 127.798 152.024C125.84 151.756 124.46 153.411 124.193 155.111C123.97 156.856 124.771 157.974 126.641 158.422C127.887 158.78 130.647 159.317 132.027 159.54C132.784 159.674 133.185 159.674 133.185 159.674H133.763L133.808 159.63ZM162.875 156.498C163.009 156.945 164.745 157.751 165.858 157.974C167.549 158.288 168.751 158.556 168.261 160.659C167.772 162.672 166.525 163.925 164.611 164.372C164.121 164.506 163.276 164.417 163.053 164.193C162.697 163.835 162.742 164.506 162.875 164.954C163.498 169.204 163.498 171.799 162.875 172.828C162.385 173.678 161.94 174.215 161.584 174.394C159.804 175.378 158.068 175.467 156.421 174.752C155.575 174.394 155.397 173.096 155.664 171.933C155.708 171.083 154.952 164.641 154.952 163.835C155.041 155.916 155.219 150.458 155.486 147.461C155.708 145.313 157.622 145.626 159.67 145.403C161.451 145.134 161.851 145.134 162.029 146.342C162.118 146.834 162.207 147.148 162.252 147.237C162.474 148.445 162.653 153.366 162.43 154.708C162.43 154.932 162.831 156.319 162.831 156.453L162.875 156.498Z" fill="#FF802E"/>
<path d="M196.127 191.35C196.261 188.665 196.394 185.802 194.035 185.444C193.367 185.31 190.563 185.176 185.533 185.042C180.503 184.907 177.52 184.818 176.452 184.818C175.784 184.818 175.295 184.371 174.894 183.52C174.137 181.91 174.093 179.897 174.716 177.525C174.805 177.078 175.295 176.765 176.274 176.586C176.497 176.452 176.719 176.541 183.218 176.541C183.93 176.496 203.561 176.004 204.318 175.96C204.718 175.96 222.39 175.781 222.88 175.781C223.725 175.781 224.393 176.317 224.927 177.481C225.729 179.181 225.907 180.881 225.462 182.536C225.283 183.118 224.838 183.565 224.082 183.878C223.236 184.236 220.209 184.46 215.045 184.594C209.882 184.728 207.166 184.818 206.944 184.863L205.965 185.042C205.876 185.4 205.119 193.274 205.03 193.676C204.896 194.526 204.362 195.018 203.516 195.197C202.671 195.332 200.667 195.466 197.551 195.555C195.771 195.555 196.083 193.05 196.172 191.35H196.127ZM206.365 150.19C206.365 152.606 206.677 154.753 207.344 156.588C207.656 157.527 208.279 158.109 209.214 158.332C211.929 158.959 215.312 159.854 219.363 161.017C220.521 161.33 221.455 161.733 220.743 163.254C220.476 163.791 220.075 166.117 219.853 166.699C218.918 170.009 215.713 170.054 211.974 170.77C210.817 170.994 209.882 171.083 209.259 171.083C208.368 171.083 207.478 170.77 206.543 170.099C205.475 169.293 204.496 168.309 203.561 167.146C202.27 165.535 200.623 164.327 198.62 163.522C197.863 163.164 196.928 163.209 195.904 163.656C193.946 164.417 191.542 165.535 188.693 166.967C187.848 167.235 186.779 167.862 186.334 168.086C185.043 168.622 181.838 169.338 180.547 168.399C180.236 168.175 180.013 167.683 179.924 166.922C179.791 166.206 179.612 165.535 179.39 164.864C178.455 162.269 179.39 160.346 182.061 159.138C188.782 156.051 192.299 154.485 192.566 154.351C193.946 153.769 194.391 152.874 194.48 151.129C194.48 150.995 194.391 150.011 194.213 148.087C198.931 147.774 201.558 147.595 202.092 147.55C203.516 147.55 206.321 148.266 206.321 150.19H206.365Z" fill="#FF802E"/>
<path d="M262.408 183.162C262.274 185.265 262.096 186.607 261.874 187.144C261.651 187.681 260.805 188.799 259.336 190.455C258.98 190.813 258.58 190.992 258.045 191.036C256.755 191.126 250.567 191.484 249.276 191.663C245.448 192.155 241.175 191.797 236.412 190.499C234.498 189.918 233.429 189.023 232.984 186.965C232.138 183.565 231.827 178.375 231.96 174.259C232.005 172.335 232.005 170.277 231.96 167.951C231.827 164.193 232.227 160.39 233.073 156.542C233.073 156.408 233.34 154.842 233.696 151.934C241.397 152.248 245.582 152.382 246.294 152.382C247.54 152.471 252.615 152.829 253.95 152.919C255.464 152.919 257.378 152.874 259.737 152.605C263.565 152.248 264.856 155.961 263.654 159.585C263.432 160.211 263.298 160.703 263.298 161.016C263.164 162.269 262.452 162.895 261.161 162.94C258.134 163.03 255.82 163.03 254.128 162.985C253.282 162.985 250.389 162.851 245.404 162.582L244.38 162.448C243.178 162.224 242.421 162.582 242.065 163.566C241.664 164.551 241.486 165.132 241.486 165.356C241.486 171.709 241.62 176.362 241.709 179.225C241.709 179.538 242.332 180.03 242.644 180.03C243.489 180.12 246.739 180.299 247.585 180.388C254.084 180.881 258.669 181.283 261.384 181.552C261.829 181.552 262.408 182.67 262.408 183.117V183.162ZM279.456 190.32C279.456 191.886 279.056 192.915 278.121 193.452C275.806 194.75 274.115 195.376 273.091 195.331C269.263 195.331 268.328 194.168 268.105 190.455C267.838 184.996 267.705 181.283 267.705 179.27C267.705 176.407 267.883 167.369 268.284 152.203C268.462 150.279 268.996 148.624 269.396 146.968C269.619 145.939 270.198 146.029 271.355 145.716C272.646 145.358 272.557 145.358 273.803 145.134C275.272 144.866 276.519 145.134 277.631 145.626C278.744 146.163 279.367 147.237 279.501 148.758C279.501 149.429 279.59 151.755 279.634 155.782C279.634 159.808 279.768 162.314 279.857 163.343C280.08 164.551 281.326 165.848 282.216 166.788C282.884 167.504 284.086 168.756 284.798 169.338C285.644 170.188 286.178 171.127 286.044 172.738C285.911 174.483 285.822 174.483 285.377 176.138C285.021 177.525 283.819 178.241 281.727 178.286C279.412 178.286 279.278 178.688 279.367 181.149C279.367 182.357 279.545 189.112 279.545 190.32H279.456Z" fill="#FF802E"/>
</g>
<path d="M19.6809 229.238V241.973H18.1379V235.312H14.5637V234.043H18.1379V229.238H19.6809ZM5.36446 238.496C7.92305 237.598 9.77852 235.303 9.77852 232.812V231.914H5.85274V230.645H15.2082V231.914H11.3215V232.812C11.3215 235.059 13.0598 237.236 15.5988 238.105L14.798 239.336C12.8449 238.623 11.3313 237.168 10.5793 235.371C9.82735 237.383 8.22578 238.975 6.16524 239.746L5.36446 238.496ZM8.52852 246.211V240.82H10.0715V244.922H20.1691V246.211H8.52852ZM35.6481 229.219V236.621H38.4215V237.91H35.6481V246.582H34.1051V229.219H35.6481ZM21.9566 241.953C23.3727 241.953 25.0231 241.943 26.7418 241.895V239.98C24.7203 239.746 23.402 238.555 23.4215 236.836C23.402 234.873 25.0621 233.604 27.5231 233.613C29.9449 233.604 31.6344 234.873 31.6441 236.836C31.6344 238.564 30.2965 239.746 28.2848 239.98V241.836C29.8961 241.758 31.5367 241.621 33.0504 241.406L33.1481 242.578C29.359 243.223 25.2574 243.262 22.2106 243.262L21.9566 241.953ZM22.2691 232.598V231.348H26.7418V229.258H28.2848V231.348H32.7379V232.598H22.2691ZM24.8473 236.836C24.857 238.037 25.9117 238.828 27.5231 238.809C29.1051 238.828 30.1695 238.037 30.1793 236.836C30.1695 235.625 29.1051 234.805 27.5231 234.805C25.9117 234.805 24.857 235.625 24.8473 236.836ZM54.9551 243.145V244.434H39.0566V243.145H46.2051V239.863H41.0488V234.512H51.4395V231.777H41.0098V230.508H52.9434V235.762H42.5723V238.594H53.3535V239.863H47.709V243.145H54.9551ZM74.9559 229.219V246.621H73.4324V236.953H69.2723V242.227H61.2645V230.586H62.8074V235.117H67.7684V230.586H69.2723V235.684H73.4324V229.219H74.9559ZM62.8074 240.957H67.7684V236.348H62.8074V240.957ZM86.0988 231.777C86.1086 234.756 89.507 237.402 92.5246 237.969L91.8215 239.258C89.1945 238.652 86.4406 236.787 85.3176 234.238C84.1848 236.787 81.4406 238.643 78.8137 239.258L78.1105 237.969C81.1184 237.393 84.4875 234.766 84.4973 231.777V230.449H86.0988V231.777ZM77.4465 244.219V242.949H93.3449V244.219H77.4465ZM112.975 237.363V238.613H107.604V243.105H114.85V244.395H98.9512V243.105H106.1V238.613H100.982V230.645H112.799V231.895H102.525V237.363H112.975ZM121.754 233.008C121.764 235.166 123.502 237.139 126.071 237.91L125.329 239.121C123.336 238.496 121.793 237.168 121.032 235.459C120.27 237.334 118.678 238.77 116.637 239.453L115.856 238.242C118.444 237.441 120.241 235.361 120.25 233.008V232.617H116.325V231.387H120.25V229.16H121.793V231.387H125.68V232.617H121.754V233.008ZM118.043 241.992V240.723H129.411V246.621H127.887V241.992H118.043ZM127.887 239.824V229.219H129.411V233.867H132.028V235.176H129.411V239.824H127.887ZM150.915 229.219V232.988H153.532V234.277H150.915V238.066H149.392V229.219H150.915ZM137.673 233.711C137.663 231.436 139.577 229.873 142.185 229.863C144.802 229.873 146.696 231.436 146.696 233.711C146.696 235.996 144.802 237.568 142.185 237.578C139.577 237.568 137.663 235.996 137.673 233.711ZM139.177 233.711C139.167 235.234 140.446 236.328 142.185 236.328C143.913 236.328 145.202 235.234 145.193 233.711C145.202 232.207 143.913 231.133 142.185 231.152C140.446 231.133 139.167 232.207 139.177 233.711ZM139.841 240.117V238.887H150.915V243.125H141.384V245.117H151.56V246.348H139.88V241.953H149.392V240.117H139.841ZM168.562 229.238V239.531H167.039V229.238H168.562ZM155.105 231.523V230.293H163.035V235H156.629V237.402C159.734 237.422 162.048 237.324 164.871 236.855L165.046 238.145C162.127 238.594 159.754 238.691 156.55 238.691H155.144V233.789H161.511V231.523H155.105ZM157.273 246.348V240.469H168.562V246.348H157.273ZM158.777 245.098H167.058V241.719H158.777V245.098ZM179.021 229.531C182.879 229.531 185.145 230.596 185.154 232.52C185.145 234.492 182.879 235.557 179.021 235.566C175.145 235.557 172.869 234.492 172.869 232.52C172.869 230.596 175.145 229.531 179.021 229.531ZM171.111 237.988V236.738H186.932V237.988H171.111ZM173.025 240.664V239.492H184.9V243.379H174.588V245.176H185.428V246.387H173.064V242.246H183.396V240.664H173.025ZM174.471 232.52C174.451 233.73 176.141 234.395 179.021 234.395C181.902 234.395 183.582 233.73 183.592 232.52C183.582 231.377 181.902 230.693 179.021 230.684C176.141 230.693 174.451 231.377 174.471 232.52ZM206.19 229.219V233.418H208.807V234.707H206.19V239.375H204.667V229.219H206.19ZM193.358 238.281V230.215H194.862V232.871H199.921V230.215H201.444V238.281H193.358ZM194.862 237.051H199.921V234.102H194.862V237.051ZM195.292 246.348V240.352H206.327V241.582H196.815V245.098H206.659V246.348H195.292ZM214.15 230.566C216.708 230.576 218.525 232.93 218.544 236.621C218.525 240.322 216.708 242.666 214.15 242.656C211.571 242.666 209.765 240.322 209.775 236.621C209.765 232.93 211.571 230.576 214.15 230.566ZM211.22 236.621C211.23 239.443 212.431 241.299 214.15 241.289C215.888 241.299 217.06 239.443 217.06 236.621C217.06 233.799 215.888 231.943 214.15 231.934C212.431 231.943 211.23 233.799 211.22 236.621ZM221.415 246.582V229.219H222.939V236.152H225.849V237.48H222.939V246.582H221.415ZM242.285 243.086V244.355H226.386V243.086H233.535V239.336H228.261V230.449H229.804V233.594H238.828V230.449H240.332V239.336H235.039V243.086H242.285ZM229.804 238.086H238.828V234.844H229.804V238.086ZM248.428 234.16C248.428 236.924 249.775 239.902 252.08 241.27L251.201 242.461C249.521 241.445 248.32 239.59 247.715 237.471C247.08 239.785 245.791 241.777 244.053 242.832L243.076 241.68C245.479 240.273 246.943 237.197 246.943 234.219V230.859H248.428V234.16ZM250.166 236.758V235.449H253.115V229.59H254.561V245.703H253.115V236.758H250.166ZM256.67 246.582V229.219H258.154V246.582H256.67ZM276.055 243.066V244.355H260.157V243.066H264.102V238.389C262.618 237.617 261.719 236.367 261.719 234.785C261.719 232.1 264.356 230.332 268.067 230.312C271.778 230.332 274.414 232.1 274.414 234.785C274.414 236.338 273.545 237.568 272.11 238.34V243.066H276.055ZM263.204 234.785C263.194 236.729 265.215 238.027 268.067 238.027C270.889 238.027 272.93 236.729 272.93 234.785C272.93 232.842 270.889 231.562 268.067 231.582C265.215 231.562 263.194 232.842 263.204 234.785ZM265.606 243.066H270.567V238.936C269.815 239.131 268.975 239.238 268.067 239.238C267.178 239.238 266.348 239.141 265.606 238.945V243.066ZM278.878 245.117C278.194 245.107 277.608 244.541 277.628 243.848C277.608 243.164 278.194 242.598 278.878 242.598C279.571 242.598 280.138 243.164 280.128 243.848C280.138 244.541 279.571 245.107 278.878 245.117Z" fill="black"/>
<defs>
<clipPath id="clip0_130_12878">
<rect width="286" height="54" fill="white" transform="translate(0 145)"/>
</clipPath>
</defs>
</svg>
